<svg width="40" height="40" viewBox="0 0 40 40" fill="none" xmlns="http://www.w3.org/2000/svg">
<path d="M36.5335 20.3727C36.5335 19.2059 35.587 18.2609 34.4183 18.2609H33.8879C33.3047 18.2609 32.832 18.7336 32.832 19.3168V19.3168C32.832 19.8975 32.3561 20.3727 31.7744 20.3727H8.23738C7.65571 20.3727 7.1798 19.8975 7.1798 19.3168V19.3168C7.1798 18.7336 6.70706 18.2609 6.1239 18.2609H5.59343C4.42481 18.2609 3.47827 19.2059 3.47827 20.3727V20.3727C3.47827 23.4907 5.64469 26.6908 7.39465 29.2714C8.11559 30.3346 8.65605 31.3336 8.88277 31.7698C8.96278 31.9237 9.04224 32.0758 9.12669 32.2273L10.2728 34.284C12.2391 37.8127 15.9621 40 20.0017 40V40C24.0457 40 27.7721 37.8079 29.7367 34.2731L30.88 32.2159C30.96 32.072 31.035 31.9287 31.111 31.7826C31.3348 31.3529 31.8818 30.3429 32.6132 29.2679C34.3672 26.6899 36.5335 23.4907 36.5335 20.3727V20.3727ZM19.812 30.9317C17.7709 30.9317 16.1105 29.2739 16.1105 27.236C16.1105 25.1981 17.7709 23.5404 19.812 23.5404C21.8531 23.5404 23.5135 25.1981 23.5135 27.236C23.5135 29.2739 21.8531 30.9317 19.812 30.9317ZM21.3984 27.236C21.3984 28.1071 20.6845 28.8199 19.812 28.8199C18.9395 28.8199 18.2256 28.1071 18.2256 27.236C18.2256 26.3649 18.9395 25.6522 19.812 25.6522C20.6845 25.6522 21.3984 26.3649 21.3984 27.236Z" fill="#20BF6B"/>
<path fill-rule="evenodd" clip-rule="evenodd" d="M27.738 0.126492C28.3286 0.421806 28.568 1.14 28.2727 1.73063L26.8684 4.53936C29.9621 6.70049 31.9859 10.2879 31.9859 14.3481V15.5438C31.9859 16.8645 30.9153 17.9351 29.5946 17.9351H10.4641C9.14347 17.9351 8.07285 16.8645 8.07285 15.5438V14.3481C8.07285 10.2879 10.0966 6.70047 13.1904 4.53936L11.786 1.73063C11.4907 1.14 11.7301 0.421806 12.3207 0.126492C12.9114 -0.168822 13.6296 0.0705715 13.9249 0.6612L15.2802 3.37191C16.736 2.74119 18.3418 2.3916 20.0294 2.3916C21.7169 2.3916 23.3228 2.74119 24.7785 3.37192L26.1339 0.6612C26.4292 0.0705715 27.1473 -0.168822 27.738 0.126492ZM14.6489 9.56551C13.6584 9.56551 12.8555 10.3685 12.8555 11.359C12.8555 12.3495 13.6584 13.1525 14.6489 13.1525C15.6394 13.1525 16.4424 12.3495 16.4424 11.359C16.4424 10.3685 15.6394 9.56551 14.6489 9.56551ZM25.4098 9.56551C24.4193 9.56551 23.6163 10.3685 23.6163 11.359C23.6163 12.3495 24.4193 13.1525 25.4098 13.1525C26.4003 13.1525 27.2033 12.3495 27.2033 11.359C27.2033 10.3685 26.4003 9.56551 25.4098 9.56551Z" fill="#20BF6B"/>
</svg>
