<svg width="49" height="49" viewBox="0 0 49 49" fill="none" xmlns="http://www.w3.org/2000/svg">
<path d="M42.0541 23.4286C42.0541 22.0868 40.9655 21 39.6216 21H39.0116C38.341 21 37.7973 21.5437 37.7973 22.2143V22.2143C37.7973 22.8821 37.25 23.4286 36.5811 23.4286H13.473C12.8041 23.4286 12.2568 22.8821 12.2568 22.2143V22.2143C12.2568 21.5437 11.7131 21 11.0425 21H10.4324C9.08851 21 8 22.0868 8 23.4286V23.4286C8 27.0143 11.1636 30.0003 12.771 33.2056C13.2201 34.1009 13.473 35.1105 13.473 36.1786V37.3745C13.473 43.7556 18.6459 48.9286 25.027 48.9286V48.9286C31.4082 48.9286 36.5811 43.7556 36.5811 37.3745V36.1786C36.5811 35.1105 36.834 34.1009 37.283 33.2056C38.8905 30.0003 42.0541 27.0143 42.0541 23.4286V23.4286ZM25.027 35.5714C22.6797 35.5714 20.7703 33.665 20.7703 31.3214C20.7703 28.9779 22.6797 27.0714 25.027 27.0714C27.3743 27.0714 29.2838 28.9779 29.2838 31.3214C29.2838 33.665 27.3743 35.5714 25.027 35.5714ZM26.8514 31.3214C26.8514 32.3232 26.0304 33.1429 25.027 33.1429C24.0236 33.1429 23.2027 32.3232 23.2027 31.3214C23.2027 30.3196 24.0236 29.5 25.027 29.5C26.0304 29.5 26.8514 30.3196 26.8514 31.3214Z" fill="#20BF6B"/>
<path fill-rule="evenodd" clip-rule="evenodd" d="M34.1419 0.145466C34.8212 0.485077 35.0964 1.311 34.7568 1.99022L33.1419 5.22026C36.6997 7.70556 39.027 11.8311 39.027 16.5003V17.8753C39.027 19.3942 37.7958 20.6253 36.277 20.6253H14.277C12.7582 20.6253 11.527 19.3942 11.527 17.8753V16.5003C11.527 11.8311 13.8543 7.70555 17.4122 5.22026L15.7972 1.99022C15.4576 1.311 15.7329 0.485077 16.4121 0.145466C17.0913 -0.194146 17.9172 0.0811572 18.2568 0.76038L19.8155 3.8777C21.4896 3.15237 23.3363 2.75033 25.277 2.75033C27.2177 2.75033 29.0644 3.15237 30.7385 3.87771L32.2972 0.76038C32.6368 0.0811572 33.4627 -0.194146 34.1419 0.145466ZM19.0895 11.0003C17.9504 11.0003 17.027 11.9238 17.027 13.0628C17.027 14.2019 17.9504 15.1253 19.0895 15.1253C20.2286 15.1253 21.152 14.2019 21.152 13.0628C21.152 11.9238 20.2286 11.0003 19.0895 11.0003ZM31.4645 11.0003C30.3255 11.0003 29.402 11.9238 29.402 13.0628C29.402 14.2019 30.3255 15.1253 31.4645 15.1253C32.6036 15.1253 33.527 14.2019 33.527 13.0628C33.527 11.9238 32.6036 11.0003 31.4645 11.0003Z" fill="#20BF6B"/>
</svg>
